<svg t="1622454017955" class="icon" viewBox="0 0 1024 1024" version="1.1" xmlns="http://www.w3.org/2000/svg" p-id="1567" width="70" height="70"><path d="M0 512a512 512 0 1 0 1024 0A512 512 0 1 0 0 512z" fill="#d6d6fe" p-id="1568" data-spm-anchor-id="a313x.7781069.0.i2" class="selected"></path><path d="M840.256 469.184a265.408 265.408 0 0 0-44.16-88.448 317.376 317.376 0 0 0-85.248-76.416 236.8 236.8 0 0 0-111.296-32.704l-16.32-61.248a31.36 31.36 0 0 1 8.384-28.288 44.032 44.032 0 0 1 28.288-14.592 80.128 80.128 0 0 1 44.16 14.592c4.928 2.624 8.384 6.784 13.248 10.112a44.8 44.8 0 0 0 64.512-54.784 51.776 51.776 0 0 0-17.664-21.632 184.192 184.192 0 0 0-69.376-33.472 132.672 132.672 0 0 0-68.48 0.896 129.152 129.152 0 0 0-47.296 29.184 126.848 126.848 0 0 0-32 40.192 122.048 122.048 0 0 0-6.784 88.448l10.624 40.832a221.312 221.312 0 0 0-122.816 84.864 199.808 199.808 0 0 0-33.536 121.92 193.088 193.088 0 0 0 10.624 57.6 159.424 159.424 0 0 0 62.72 81.344 144.512 144.512 0 0 0 105.984 19.84 150.592 150.592 0 0 0 121.6-152.896l-4.416-25.6c-9.28-35.776-19.2-71.104-27.84-106.496a139.264 139.264 0 0 1 37.056 14.144 246.144 246.144 0 0 1 37.056 27.2 186.496 186.496 0 0 1 56.128 86.144 220.48 220.48 0 0 1 0 122.496 196.224 196.224 0 0 1-16.832 39.744 239.808 239.808 0 0 1-130.752 112.192 302.016 302.016 0 0 1-101.184 18.112A258.432 258.432 0 0 1 384 753.28a285.824 285.824 0 0 1-132.544-152.896 289.792 289.792 0 0 1-15.936-140.8 284.48 284.48 0 0 1 180.736-227.968 44.8 44.8 0 0 0 10.112-77.76 59.072 59.072 0 0 0-49.472-2.624 372.928 372.928 0 0 0-223.552 265.344 380.032 380.032 0 0 0 100.288 350.336 353.472 353.472 0 0 0 193.536 102.4 364.032 364.032 0 0 0 107.392 0 353.472 353.472 0 0 0 146.24-51.2 332.096 332.096 0 0 0 132.544-162.56 323.264 323.264 0 0 0 17.664-84.864 294.4 294.4 0 0 0-10.752-101.504z m-320.768 92.352a56.064 56.064 0 0 1-44.16-8.384 76.8 76.8 0 0 1-29.184-47.616 132.352 132.352 0 0 1 0-51.2 103.808 103.808 0 0 1 26.048-49.472 140.8 140.8 0 0 1 62.72-36.224l30.464 115.2a161.792 161.792 0 0 1 4.032 20.416 61.824 61.824 0 0 1-49.92 57.28z" fill="#ffffff" p-id="1569" data-spm-anchor-id="a313x.7781069.0.i1" class=""></path></svg>