<svg t="1623157208706" class="icon" viewBox="0 0 1024 1024" version="1.1" xmlns="http://www.w3.org/2000/svg" p-id="2474" width="16" height="16"><path d="M511.998 243.074c49.505 0 89.644-40.137 89.644-89.642s-40.14-89.641-89.644-89.641c-49.502 0-89.64 40.137-89.64 89.641s40.137 89.642 89.64 89.642z m0 179.284c-49.502 0-89.64 40.139-89.64 89.643s40.138 89.642 89.64 89.642c49.505 0 89.644-40.137 89.644-89.642s-40.14-89.643-89.644-89.643z m0 358.567c-49.502 0-89.64 40.094-89.64 89.643 0 49.503 40.138 89.641 89.64 89.641 49.505 0 89.644-40.138 89.644-89.641 0-49.549-40.14-89.643-89.644-89.643z" p-id="2475" fill="#ffffff"></path></svg>