<svg t="1623156775947" class="icon" viewBox="0 0 1024 1024" version="1.1" xmlns="http://www.w3.org/2000/svg" p-id="5866" width="16" height="16"><path d="M990.01671444 469.37896716L179.67303912 469.37896716 386.6003215 270.17610834c5.2969054-5.29828624 5.2969054-13.88573532 0-19.18540239l-41.56330878-41.56468962a13.56952277 13.56952277 0 0 0-19.18678323 0l-260.49009791 250.77312103c-0.29964246 0.25269386-0.59652324 0.51367279-0.8795956 0.79536432l-1.39188755 1.39188755-40.17418291 38.67320893a13.53085923 13.53085923 0 0 0-3.93815803 10.32868936 13.52395502 13.52395502 0 0 0 3.93539635 10.35354449l41.56607046 40.06509648c0.26926396 0.2637406 0.54957465 0.5109111 0.83126617 0.7511774l260.53980818 250.81592711a13.56676109 13.56676109 0 0 0 19.18678324-1e-8l41.56607045-41.56607045c5.2969054-5.2969054 5.2969054-13.88573532 1e-8-19.18678324L181.61450131 555.28797896l808.39945145 0c7.49244232 0 13.56538025-6.07293793 13.56538024-13.56399939l0-58.78377468c0-7.48968063-6.07293793-13.56538025-13.56538024-13.56538026l0.00276168 0.00414253z" p-id="5867" fill="#ffffff"></path></svg>