<svg t="1622962669049" class="icon" viewBox="0 0 1024 1024" version="1.1" xmlns="http://www.w3.org/2000/svg" p-id="25406" width="16" height="16"><path d="M837.812706 93.093647c51.2 0 93.093647 41.893647 93.093647 93.093647v651.625412c0 51.2-41.893647 93.093647-93.093647 93.093647H186.187294c-51.2 0-93.093647-41.893647-93.093647-93.093647V186.187294c0-51.2 41.893647-93.093647 93.093647-93.093647h651.625412z m0-93.093647H186.187294C83.787294 0 0 83.787294 0 186.187294v651.625412C0 940.212706 83.787294 1024 186.187294 1024h651.625412C940.212706 1024 1024 940.212706 1024 837.812706V186.187294C1024 83.787294 940.212706 0 837.812706 0z" p-id="25407" fill="#bfbfbf"></path><path d="M454.083765 711.845647l229.345882-160.421647c32.436706-22.919529 32.436706-71.047529 0-93.967059l-229.345882-160.421647C414.689882 269.552941 361.411765 297.035294 361.411765 345.163294v320.858353c0 45.824 53.278118 73.336471 92.672 45.824z" p-id="25408" fill="#bfbfbf"></path></svg>